<svg version="1.0" xmlns="http://www.w3.org/2000/svg" width="200px" viewBox="0 0 10270 3880" preserveAspectRatio="xMidYMid meet">
<g id="layer101" fill="#08a1e1" stroke="none">
 <path d="M0 1940 l0 -1940 1310 0 c744 0 1310 4 1310 9 0 5 -511 438 -1135 962 -722 607 -1135 959 -1133 969 3 13 71 15 561 18 l557 2 2 938 3 937 303 3 302 2 0 -945 0 -945 270 0 270 0 0 945 0 945 3825 0 c3818 0 3825 0 3825 20 0 20 -7 20 -5135 20 l-5135 0 0 -1940z"/>
 <path d="M5240 3762 l-65 -17 -3 -68 c-2 -38 1 -67 5 -65 4 2 33 16 63 32 107 56 260 43 295 -24 38 -73 3 -128 -115 -188 -131 -66 -194 -110 -224 -155 -25 -38 -27 -49 -24 -114 4 -84 19 -111 91 -160 62 -42 139 -57 252 -50 138 9 135 8 135 83 l0 63 -45 -20 c-67 -30 -173 -36 -230 -15 -54 21 -75 48 -75 97 0 54 27 79 159 149 169 89 221 149 221 254 0 48 -28 112 -61 143 -72 66 -245 91 -379 55z"/>
 <path d="M7320 3765 c-151 -43 -249 -167 -266 -337 -14 -143 36 -278 136 -371 85 -80 145 -101 285 -101 62 -1 129 5 153 12 l42 13 0 64 c0 63 -6 75 -25 56 -17 -16 -117 -41 -165 -41 -120 0 -211 55 -261 156 -30 60 -33 76 -33 153 0 131 49 220 149 274 58 32 209 31 279 -1 27 -12 50 -22 52 -22 2 0 4 27 4 59 l0 59 -47 17 c-69 24 -233 29 -303 10z"/>
 <path d="M2980 2759 l0 -1011 408 5 c452 4 472 7 610 73 90 43 186 135 224 214 73 154 67 370 -14 522 -59 111 -196 221 -327 263 l-54 17 46 29 c76 47 170 154 253 287 60 96 99 159 240 382 72 113 133 211 138 218 6 9 -32 12 -176 12 l-183 0 -179 -301 c-232 -389 -277 -448 -380 -501 -34 -18 -63 -23 -168 -26 l-128 -4 0 416 0 416 -155 0 -155 0 0 -1011z m705 -94 c67 -18 143 -62 179 -106 13 -16 37 -54 52 -85 24 -49 28 -68 27 -148 0 -152 -53 -237 -179 -287 -53 -20 -79 -23 -266 -27 l-208 -4 0 336 0 336 168 0 c119 0 185 -4 227 -15z"/>
 <path d="M4607 3763 c-4 -3 -7 -186 -7 -405 l0 -398 215 0 215 0 0 55 0 55 -150 0 -150 0 0 115 0 115 140 0 140 0 0 55 0 55 -140 0 -140 0 0 125 0 125 160 0 160 0 0 55 0 55 -218 0 c-120 0 -222 -3 -225 -7z"/>
 <path d="M5835 3757 c-3 -6 -4 -188 -3 -402 l3 -390 175 0 c163 1 178 2 223 24 84 41 127 115 127 217 0 73 -16 116 -60 167 -59 67 -114 89 -237 95 l-103 5 0 148 0 149 -60 0 c-39 0 -62 -4 -65 -13z m315 -409 c53 -27 80 -73 80 -136 0 -103 -50 -144 -182 -150 l-88 -4 0 156 0 156 73 0 c56 0 83 -5 117 -22z"/>
 <path d="M6500 3365 l0 -405 214 0 213 0 7 39 c11 71 12 71 -155 71 l-149 0 0 115 0 115 140 0 140 0 0 55 0 55 -140 0 -140 0 0 125 0 125 160 0 160 0 0 55 0 55 -225 0 -225 0 0 -405z"/>
 <path d="M7980 3433 c0 -186 -4 -343 -8 -350 -5 -8 -45 -13 -117 -15 l-110 -3 -3 -52 -3 -53 295 0 296 0 0 55 0 55 -115 0 -115 0 0 350 0 350 -60 0 -60 0 0 -337z"/>
 </g>
<g id="layer102" fill="#fdffff" stroke="none">
 <path d="M1477 3833 c-4 -3 -7 -426 -7 -940 l0 -933 -557 -2 c-490 -3 -558 -5 -561 -18 -2 -10 411 -362 1133 -969 624 -524 1135 -957 1135 -962 0 -5 1638 -9 3825 -9 l3825 0 0 1920 0 1920 -3825 0 -3825 0 0 -945 0 -945 -270 0 -270 0 0 945 0 945 -298 0 c-164 0 -302 -3 -305 -7z m4068 -82 c27 -12 61 -32 74 -44 33 -31 61 -95 61 -143 0 -105 -52 -165 -221 -254 -132 -70 -159 -95 -159 -149 0 -49 21 -76 75 -97 57 -21 163 -15 230 15 l45 20 0 -63 c0 -75 3 -74 -135 -83 -113 -7 -190 8 -252 50 -72 49 -87 76 -91 160 -3 65 -1 76 24 114 30 45 93 89 224 155 118 60 153 115 115 188 -35 67 -188 80 -295 24 -30 -16 -59 -30 -63 -32 -4 -2 -7 27 -5 65 l3 68 65 17 c91 25 236 19 305 -11z m2078 4 l47 -17 0 -59 c0 -32 -2 -59 -4 -59 -2 0 -25 10 -52 22 -70 32 -221 33 -279 1 -100 -54 -149 -143 -149 -274 0 -77 3 -93 33 -153 50 -101 141 -156 261 -156 48 0 148 25 165 41 19 19 25 7 25 -56 l0 -64 -42 -13 c-24 -7 -91 -13 -153 -12 -140 0 -200 21 -285 101 -100 93 -150 228 -136 371 17 170 115 294 266 337 70 19 234 14 303 -10z m-4333 -401 l0 -416 128 4 c228 8 252 30 548 527 l179 301 183 0 c144 0 182 -3 176 -12 -5 -7 -66 -105 -138 -218 -141 -223 -180 -286 -240 -382 -83 -133 -177 -240 -253 -287 l-46 -29 54 -17 c131 -42 268 -152 327 -263 81 -152 87 -368 14 -522 -38 -79 -134 -171 -224 -214 -138 -66 -158 -69 -610 -73 l-408 -5 0 1011 0 1011 155 0 155 0 0 -416z m1760 361 l0 -55 -160 0 -160 0 0 -125 0 -125 140 0 140 0 0 -55 0 -55 -140 0 -140 0 0 -115 0 -115 150 0 150 0 0 -55 0 -55 -215 0 -215 0 0 398 c0 219 3 402 7 405 3 4 105 7 225 7 l218 0 0 -55z m910 -94 l0 -148 103 -5 c123 -6 178 -28 237 -95 44 -51 60 -94 60 -167 0 -102 -43 -176 -127 -217 -45 -22 -60 -23 -223 -24 l-175 0 -3 390 c-1 214 0 396 3 402 3 9 26 13 65 13 l60 0 0 -149z m990 94 l0 -55 -160 0 -160 0 0 -125 0 -125 140 0 140 0 0 -55 0 -55 -140 0 -140 0 0 -115 0 -115 149 0 c167 0 166 0 155 -71 l-7 -39 -213 0 -214 0 0 405 0 405 225 0 225 0 0 -55z m1150 -295 l0 -350 115 0 115 0 0 -55 0 -55 -296 0 -295 0 3 53 3 52 110 3 c72 2 112 7 117 15 4 7 8 164 8 350 l0 337 60 0 60 0 0 -350z"/>
 <path d="M3290 2344 l0 -336 208 4 c187 4 213 7 266 27 126 50 179 135 179 287 1 80 -3 99 -27 148 -36 73 -65 107 -124 144 -76 50 -144 62 -334 62 l-168 0 0 -336z"/>
 <path d="M5960 3214 l0 -156 88 4 c132 6 182 47 182 150 0 103 -69 158 -197 158 l-73 0 0 -156z"/>
 </g>
</svg>